<svg width="91" height="16" viewBox="0 0 91 16" fill="none" xmlns="http://www.w3.org/2000/svg">
<path d="M32.3873 16C29.0909 16 26.0364 15.0182 24 13.1873C23.2718 12.533 22.6916 11.7308 22.2981 10.8344C21.9046 9.93803 21.7069 8.96799 21.7182 7.98909C21.7159 7.01423 21.9178 6.04969 22.3108 5.15755C22.7038 4.26541 23.2792 3.46543 24 2.80909C25.8909 1.09091 29.2364 0 32.3873 0C35.8727 0 38.6636 0.878182 40.7964 2.81273C41.5144 3.46884 42.0859 4.26897 42.4738 5.1609C42.8616 6.05284 43.057 7.01653 43.0473 7.98909C43.0424 8.96262 42.8405 9.92508 42.4536 10.8185C42.0668 11.7118 41.503 12.5176 40.7964 13.1873C38.8091 15.0291 35.6891 16 32.3873 16V13.8945C34.1346 13.8945 35.7564 13.2909 36.8891 12.1636C38.0218 11.0364 38.5364 9.66909 38.5364 7.98182C38.5364 6.37091 37.9709 4.86545 36.8891 3.8C35.7709 2.7 34.1109 2.08 32.3873 2.08C30.6636 2.08 28.9964 2.69455 27.8782 3.8C26.8 4.86727 26.2418 6.37818 26.2418 7.98182C26.2256 8.75229 26.3619 9.51837 26.6427 10.236C26.9235 10.9537 27.3434 11.6088 27.8782 12.1636C28.9964 13.2782 30.6527 13.8945 32.3873 13.8945V16ZM8.31819 0C6.55637 0 4.55456 0.330909 2.86365 1.09091C1.28547 1.79636 1.12036e-05 2.92909 1.12036e-05 4.80727C-0.00235986 5.79083 0.3717 6.73801 1.04547 7.45455C1.50183 7.87636 2.23819 8.59273 4.16183 9.01455C5.02183 9.19636 6.86001 9.48909 8.69092 9.68182C10.5218 9.87454 12.2964 10.0455 13.0236 10.24C13.6018 10.3873 14.5746 10.5873 14.5746 11.6782C14.5746 12.7691 13.5509 13.0964 13.3727 13.1673C13.1946 13.2382 11.9655 13.8018 9.75819 13.8018C8.29574 13.7612 6.84657 13.512 5.45456 13.0618C4.63092 12.7673 3.76728 12.38 2.96183 11.3964C2.63677 10.9332 2.45644 10.3839 2.44365 9.81818H0.443648V15.4182H2.66547V14.66C2.66511 14.6038 2.67976 14.5484 2.7079 14.4998C2.73603 14.4511 2.77664 14.4107 2.82554 14.383C2.87443 14.3552 2.92985 14.3409 2.98609 14.3417C3.04232 14.3424 3.09734 14.3582 3.14547 14.3873C4.19224 14.8428 5.28106 15.1947 6.39638 15.4382C7.56365 15.6818 8.31819 15.8582 9.7691 15.8582C11.3001 15.8873 12.826 15.6719 14.2891 15.22C15.2607 14.9537 16.1722 14.5038 16.9746 13.8945C17.4258 13.5479 17.7906 13.1014 18.0401 12.59C18.2896 12.0786 18.4172 11.5163 18.4127 10.9473C18.4203 9.86627 18.0031 8.82552 17.2509 8.04909C16.8327 7.64318 16.3481 7.31174 15.8182 7.06909C15.2485 6.81171 14.6571 6.60544 14.0509 6.45273C12.8982 6.17091 10.3091 5.81818 9.07092 5.69455C7.77274 5.56 5.52001 5.37273 4.62001 5.09455C4.34728 5.00909 3.79092 4.74545 3.79092 4.1C3.79092 3.64 4.04547 3.25091 4.54728 2.93636C5.34547 2.43636 6.95637 2.12545 8.63637 2.12545C10.2625 2.10582 11.8753 2.42083 13.3746 3.05091C13.7773 3.22639 14.1562 3.45245 14.5018 3.72364C15.0653 4.20492 15.4555 4.85763 15.6127 5.58182H17.4073V0.707273H15.4073V1.27273C15.4073 1.45455 15.2255 1.69455 14.8618 1.49636C13.96 1.02727 11.4255 0.0127273 8.31819 0ZM52.2255 0.894545L62 9.71454L61.9 3.77636C61.8891 2.99636 61.7473 2.67091 60.9036 2.67091H59.0673V0.894545H67.4309V2.67091H65.6364C64.7782 2.67091 64.7273 2.94727 64.7127 3.77636L64.8636 15.1236H62L50.74 5.07636V12.2055C50.7491 12.9818 50.7855 13.3473 51.5836 13.3473H53.5836V15.1236H45.3855V13.3473H47.3055C48.0218 13.3473 47.9927 12.6636 47.9927 12.1655V3.84364C47.9927 3.29818 47.9164 2.67273 46.7927 2.67273H45.2364V0.894545H52.2255ZM76.9727 13.3436C77.1381 13.3436 77.3032 13.3333 77.4673 13.3127C77.5525 13.2872 77.6311 13.2433 77.6977 13.1843C77.7642 13.1253 77.8171 13.0525 77.8527 12.9709C77.8778 12.8446 77.8906 12.7161 77.8909 12.5873V9.77818C77.8909 9.68364 77.8909 9.68182 77.7709 9.53273C77.6509 9.38364 72.6509 3.71455 72.4236 3.46C72.14 3.15091 71.6418 2.67273 70.8836 2.67273H69.1473V0.894545H78.9473V2.66909H77.7655C77.4927 2.66909 77.3109 2.92909 77.5436 3.21455C77.5436 3.21455 80.8418 7.16 80.8727 7.20182C80.9036 7.24364 80.9309 7.25273 80.9727 7.21455C81.0146 7.17636 84.3527 3.25091 84.3782 3.21455C84.4176 3.16276 84.4414 3.10074 84.4467 3.03585C84.4519 2.97095 84.4384 2.90592 84.4078 2.84847C84.3771 2.79103 84.3306 2.74359 84.2738 2.71179C84.217 2.67999 84.1523 2.66517 84.0873 2.66909H82.8746V0.894545H90.9091V2.67273H89.1146C88.4636 2.67273 88.2055 2.79273 87.7091 3.34545L82.3 9.51636C82.247 9.59276 82.2238 9.68585 82.2346 9.77818V12.5855C82.2355 12.7143 82.2489 12.8428 82.2746 12.9691C82.3095 13.0507 82.362 13.1236 82.4283 13.1827C82.4946 13.2418 82.5731 13.2856 82.6582 13.3109C82.8209 13.3324 82.985 13.3427 83.1491 13.3418H84.9836V15.12H75.2346V13.3418L76.9727 13.3436Z" fill="black"/>
</svg>
